<svg width="17" height="17" viewBox="0 0 17 17" fill="none" xmlns="http://www.w3.org/2000/svg">
<path d="M0.144356 6.14894C0.33683 6.99617 0.704795 7.7326 1.24825 8.35825L8.5 17L15.7517 8.35825C16.2952 7.7326 16.6632 6.99617 16.8556 6.14894C17.0481 5.30171 17.0481 4.46099 16.8556 3.6268C16.6632 2.7926 16.2952 2.06268 15.7517 1.43703C15.2083 0.811386 14.5743 0.387771 13.8497 0.166187C13.125 -0.0553958 12.3891 -0.0553958 11.6419 0.166187C10.8946 0.387771 10.2606 0.811386 9.73976 1.43703L8.5 3.15756L7.26024 1.43703C6.71678 0.811386 6.08275 0.387771 5.35814 0.166187C4.63353 -0.0553958 3.90326 -0.0553958 3.16733 0.166187C2.4314 0.387771 1.79171 0.811386 1.24825 1.43703C0.704795 2.06268 0.33683 2.7926 0.144356 3.6268C-0.0481185 4.46099 -0.0481185 5.30171 0.144356 6.14894Z" fill="black"/>
</svg>
