<svg width="35" height="52" viewBox="0 0 35 52" fill="none" xmlns="http://www.w3.org/2000/svg">
<path fill-rule="evenodd" clip-rule="evenodd" d="M18.9832 34.3895L18.9839 34.2094C28.2106 33.2714 35.0109 25.1544 34.3182 15.9061C33.6256 6.65784 25.692 -0.355602 16.4285 0.091304C7.16511 0.53821 -0.0564795 8.2828 0.144342 17.5548C0.345163 26.8269 7.8953 34.2515 17.1694 34.2969C17.1656 43.4957 24.6013 50.9655 33.8 51.0037L33.8689 34.4515L18.9832 34.3895ZM11.5254 17.178C11.534 14.8662 12.9345 12.7873 15.0737 11.9108C17.2129 11.0343 19.6694 11.5329 21.2976 13.174C22.9258 14.8151 23.405 17.2755 22.5117 19.4077C21.6184 21.5399 19.5285 22.9239 17.2167 22.9143C15.7012 22.9087 14.2501 22.301 13.1827 21.2252C12.1153 20.1494 11.5191 18.6935 11.5254 17.178Z" fill="black"/>
</svg>
